<?xml version="1.0" encoding="UTF-8"?>
<svg xmlns="http://www.w3.org/2000/svg" width="1280" height="800" viewBox="0 0 1280 800">
  <rect width="1280" height="800" fill="#FFFFFF"/>
  <rect x="0" y="0" width="1280" height="28" fill="#020617" fill-opacity="1" stroke="none"/>
  <text x="8" y="18" font-size="12" fill="#CBD5E1" text-anchor="start" font-family="Inter,system-ui,sans-serif">File</text>
  <text x="54" y="18" font-size="12" fill="#CBD5E1" text-anchor="start" font-family="Inter,system-ui,sans-serif">Edit</text>
  <text x="100" y="18" font-size="12" fill="#CBD5E1" text-anchor="start" font-family="Inter,system-ui,sans-serif">View</text>
  <text x="148" y="18" font-size="12" fill="#CBD5E1" text-anchor="start" font-family="Inter,system-ui,sans-serif">Model</text>
  <text x="196" y="18" font-size="12" fill="#CBD5E1" text-anchor="start" font-family="Inter,system-ui,sans-serif">BPMN</text>
  <text x="248" y="18" font-size="12" fill="#CBD5E1" text-anchor="start" font-family="Inter,system-ui,sans-serif">Help</text>
  <text x="1272" y="17" font-size="11" fill="#64748B" text-anchor="end" font-family="Inter,system-ui,sans-serif">OEA 0.1.0-SNAPSHOT</text>
  <rect x="0" y="28" width="1280" height="36" fill="#1E293B" fill-opacity="1" stroke="#334155" stroke-width="1"/>
  <text x="8" y="51" font-size="12" fill="#94A3B8" text-anchor="start" font-family="Inter,system-ui,sans-serif">Processes</text>
  <text x="76" y="51" font-size="12" fill="#94A3B8" text-anchor="middle" font-family="Inter,system-ui,sans-serif">›</text>
  <text x="84" y="51" font-size="12" fill="#F1F5F9" text-anchor="start" font-family="Inter,system-ui,sans-serif">Architecture Review</text>
  <rect x="1090" y="35" width="80" height="22" fill="#0B1829" fill-opacity="1" stroke="#334155" stroke-width="1"/>
  <text x="1130" y="50" font-size="11" fill="#94A3B8" text-anchor="middle" font-family="Inter,system-ui,sans-serif">Validate BPMN</text>
  <rect x="1178" y="35" width="76" height="22" fill="#38BDF8" fill-opacity="1" stroke="none"/>
  <text x="1216" y="50" font-size="11" fill="#FFFFFF" text-anchor="middle" font-family="Inter,system-ui,sans-serif">Save</text>
  <rect x="260" y="64" width="4" height="520" fill="#334155" fill-opacity="1" stroke="none"/>
  <rect x="444" y="64" width="4" height="520" fill="#334155" fill-opacity="1" stroke="none"/>
  <rect x="980" y="64" width="4" height="520" fill="#334155" fill-opacity="1" stroke="none"/>
  <rect x="0" y="64" width="260" height="520" fill="#1E293B" fill-opacity="1" stroke="none"/>
  <rect x="0" y="64" width="260" height="28" fill="#162030" fill-opacity="1" stroke="#334155" stroke-width="1"/>
  <text x="8" y="83" font-size="12" fill="#F1F5F9" text-anchor="start" font-family="Inter,system-ui,sans-serif">Process Explorer</text>
  <rect x="8" y="100" width="244" height="24" fill="#0B1829" fill-opacity="1" stroke="#334155" stroke-width="1"/>
  <text x="14" y="117" font-size="11" fill="#94A3B8" text-anchor="start" font-family="Inter,system-ui,sans-serif">Search processes...</text>
  <text x="10" y="144" font-size="9" fill="#94A3B8" text-anchor="middle" font-family="Inter,system-ui,sans-serif">▼</text>
  <rect x="18" y="139" width="7" height="7" fill="#7C3AED" fill-opacity="1" stroke="none"/>
  <text x="28" y="146" font-size="11" fill="#F1F5F9" text-anchor="start" font-family="Inter,system-ui,sans-serif">Architecture Governance</text>
  <text x="24" y="166" font-size="9" fill="#94A3B8" text-anchor="middle" font-family="Inter,system-ui,sans-serif">▼</text>
  <rect x="32" y="161" width="7" height="7" fill="#0284C7" fill-opacity="1" stroke="none"/>
  <text x="42" y="168" font-size="11" fill="#F1F5F9" text-anchor="start" font-family="Inter,system-ui,sans-serif">Architecture Review</text>
  <text x="24" y="188" font-size="9" fill="#94A3B8" text-anchor="middle" font-family="Inter,system-ui,sans-serif">▶</text>
  <rect x="32" y="183" width="7" height="7" fill="#0284C7" fill-opacity="1" stroke="none"/>
  <text x="42" y="190" font-size="11" fill="#F1F5F9" text-anchor="start" font-family="Inter,system-ui,sans-serif">Change Request Intake</text>
  <text x="10" y="210" font-size="9" fill="#94A3B8" text-anchor="middle" font-family="Inter,system-ui,sans-serif">▶</text>
  <rect x="18" y="205" width="7" height="7" fill="#059669" fill-opacity="1" stroke="none"/>
  <text x="28" y="212" font-size="11" fill="#F1F5F9" text-anchor="start" font-family="Inter,system-ui,sans-serif">Solution Delivery</text>
  <text x="10" y="232" font-size="9" fill="#94A3B8" text-anchor="middle" font-family="Inter,system-ui,sans-serif">▶</text>
  <rect x="18" y="227" width="7" height="7" fill="#DC2626" fill-opacity="1" stroke="none"/>
  <text x="28" y="234" font-size="11" fill="#F1F5F9" text-anchor="start" font-family="Inter,system-ui,sans-serif">Risk &amp; Compliance</text>
  <rect x="264" y="64" width="180" height="520" fill="#172030" fill-opacity="1" stroke="none"/>
  <rect x="264" y="64" width="180" height="28" fill="#162030" fill-opacity="1" stroke="#334155" stroke-width="1"/>
  <text x="272" y="82" font-size="11" fill="#F1F5F9" text-anchor="start" font-family="Inter,system-ui,sans-serif">BPMN Elements</text>
  <rect x="416" y="69" width="22" height="18" fill="#0B1829" fill-opacity="1" stroke="#334155" stroke-width="1"/>
  <text x="427" y="81" font-size="10" fill="#94A3B8" text-anchor="middle" font-family="Inter,system-ui,sans-serif">◀</text>
  <rect x="264" y="92" width="180" height="22" fill="#162030" fill-opacity="1" stroke="none"/>
  <text x="274" y="105" font-size="9" fill="#94A3B8" text-anchor="middle" font-family="Inter,system-ui,sans-serif">▼</text>
  <text x="282" y="106" font-size="10" fill="#F1F5F9" text-anchor="start" font-family="Inter,system-ui,sans-serif">Events</text>
  <rect x="270" y="116" width="168" height="26" fill="#1E293B" fill-opacity="1" stroke="#334155" stroke-width="1"/>
  <rect x="274" y="119" width="20" height="16" fill="#16A34A" fill-opacity="0.18" stroke="none"/>
  <text x="284" y="130" font-size="9" fill="#16A34A" text-anchor="middle" font-family="Inter,system-ui,sans-serif">○</text>
  <text x="298" y="130" font-size="9" fill="#F1F5F9" text-anchor="start" font-family="Inter,system-ui,sans-serif">Start Event</text>
  <rect x="270" y="144" width="168" height="26" fill="#1E293B" fill-opacity="1" stroke="#334155" stroke-width="1"/>
  <rect x="274" y="147" width="20" height="16" fill="#D97706" fill-opacity="0.18" stroke="none"/>
  <text x="284" y="158" font-size="9" fill="#D97706" text-anchor="middle" font-family="Inter,system-ui,sans-serif">◎</text>
  <text x="298" y="158" font-size="9" fill="#F1F5F9" text-anchor="start" font-family="Inter,system-ui,sans-serif">Intermediate</text>
  <rect x="270" y="172" width="168" height="26" fill="#1E293B" fill-opacity="1" stroke="#334155" stroke-width="1"/>
  <rect x="274" y="175" width="20" height="16" fill="#DC2626" fill-opacity="0.18" stroke="none"/>
  <text x="284" y="186" font-size="9" fill="#DC2626" text-anchor="middle" font-family="Inter,system-ui,sans-serif">◉</text>
  <text x="298" y="186" font-size="9" fill="#F1F5F9" text-anchor="start" font-family="Inter,system-ui,sans-serif">End Event</text>
  <rect x="270" y="200" width="168" height="26" fill="#1E293B" fill-opacity="1" stroke="#334155" stroke-width="1"/>
  <rect x="274" y="203" width="20" height="16" fill="#D97706" fill-opacity="0.18" stroke="none"/>
  <text x="284" y="214" font-size="9" fill="#D97706" text-anchor="middle" font-family="Inter,system-ui,sans-serif">✉</text>
  <text x="298" y="214" font-size="9" fill="#F1F5F9" text-anchor="start" font-family="Inter,system-ui,sans-serif">Message Event</text>
  <rect x="264" y="228" width="180" height="22" fill="#162030" fill-opacity="1" stroke="none"/>
  <text x="274" y="241" font-size="9" fill="#94A3B8" text-anchor="middle" font-family="Inter,system-ui,sans-serif">▼</text>
  <text x="282" y="242" font-size="10" fill="#F1F5F9" text-anchor="start" font-family="Inter,system-ui,sans-serif">Activities</text>
  <rect x="270" y="252" width="168" height="26" fill="#1E293B" fill-opacity="1" stroke="#334155" stroke-width="1"/>
  <rect x="274" y="255" width="20" height="16" fill="#0EA5E9" fill-opacity="0.18" stroke="none"/>
  <text x="284" y="266" font-size="9" fill="#0EA5E9" text-anchor="middle" font-family="Inter,system-ui,sans-serif">☐</text>
  <text x="298" y="266" font-size="9" fill="#F1F5F9" text-anchor="start" font-family="Inter,system-ui,sans-serif">User Task</text>
  <rect x="270" y="280" width="168" height="26" fill="#1E293B" fill-opacity="1" stroke="#334155" stroke-width="1"/>
  <rect x="274" y="283" width="20" height="16" fill="#0EA5E9" fill-opacity="0.18" stroke="none"/>
  <text x="284" y="294" font-size="9" fill="#0EA5E9" text-anchor="middle" font-family="Inter,system-ui,sans-serif">⚙</text>
  <text x="298" y="294" font-size="9" fill="#F1F5F9" text-anchor="start" font-family="Inter,system-ui,sans-serif">Service Task</text>
  <rect x="270" y="308" width="168" height="26" fill="#1E293B" fill-opacity="1" stroke="#334155" stroke-width="1"/>
  <rect x="274" y="311" width="20" height="16" fill="#0EA5E9" fill-opacity="0.18" stroke="none"/>
  <text x="284" y="322" font-size="9" fill="#0EA5E9" text-anchor="middle" font-family="Inter,system-ui,sans-serif">📋</text>
  <text x="298" y="322" font-size="9" fill="#F1F5F9" text-anchor="start" font-family="Inter,system-ui,sans-serif">Script Task</text>
  <rect x="270" y="336" width="168" height="26" fill="#1E293B" fill-opacity="1" stroke="#334155" stroke-width="1"/>
  <rect x="274" y="339" width="20" height="16" fill="#0EA5E9" fill-opacity="0.18" stroke="none"/>
  <text x="284" y="350" font-size="9" fill="#0EA5E9" text-anchor="middle" font-family="Inter,system-ui,sans-serif">⊞</text>
  <text x="298" y="350" font-size="9" fill="#F1F5F9" text-anchor="start" font-family="Inter,system-ui,sans-serif">Sub-Process</text>
  <rect x="264" y="364" width="180" height="22" fill="#162030" fill-opacity="1" stroke="none"/>
  <text x="274" y="377" font-size="9" fill="#94A3B8" text-anchor="middle" font-family="Inter,system-ui,sans-serif">▼</text>
  <text x="282" y="378" font-size="10" fill="#F1F5F9" text-anchor="start" font-family="Inter,system-ui,sans-serif">Gateways</text>
  <rect x="270" y="388" width="168" height="26" fill="#1E293B" fill-opacity="1" stroke="#334155" stroke-width="1"/>
  <rect x="274" y="391" width="20" height="16" fill="#B45309" fill-opacity="0.18" stroke="none"/>
  <text x="284" y="402" font-size="9" fill="#B45309" text-anchor="middle" font-family="Inter,system-ui,sans-serif">✕</text>
  <text x="298" y="402" font-size="9" fill="#F1F5F9" text-anchor="start" font-family="Inter,system-ui,sans-serif">Exclusive (XOR)</text>
  <rect x="270" y="416" width="168" height="26" fill="#1E293B" fill-opacity="1" stroke="#334155" stroke-width="1"/>
  <rect x="274" y="419" width="20" height="16" fill="#B45309" fill-opacity="0.18" stroke="none"/>
  <text x="284" y="430" font-size="9" fill="#B45309" text-anchor="middle" font-family="Inter,system-ui,sans-serif">+</text>
  <text x="298" y="430" font-size="9" fill="#F1F5F9" text-anchor="start" font-family="Inter,system-ui,sans-serif">Parallel (AND)</text>
  <rect x="270" y="444" width="168" height="26" fill="#1E293B" fill-opacity="1" stroke="#334155" stroke-width="1"/>
  <rect x="274" y="447" width="20" height="16" fill="#B45309" fill-opacity="0.18" stroke="none"/>
  <text x="284" y="458" font-size="9" fill="#B45309" text-anchor="middle" font-family="Inter,system-ui,sans-serif">◯</text>
  <text x="298" y="458" font-size="9" fill="#F1F5F9" text-anchor="start" font-family="Inter,system-ui,sans-serif">Inclusive (OR)</text>
  <rect x="264" y="472" width="180" height="22" fill="#162030" fill-opacity="1" stroke="none"/>
  <text x="274" y="485" font-size="9" fill="#94A3B8" text-anchor="middle" font-family="Inter,system-ui,sans-serif">▼</text>
  <text x="282" y="486" font-size="10" fill="#F1F5F9" text-anchor="start" font-family="Inter,system-ui,sans-serif">Connections</text>
  <rect x="270" y="496" width="168" height="26" fill="#1E293B" fill-opacity="1" stroke="#334155" stroke-width="1"/>
  <rect x="274" y="499" width="20" height="16" fill="#94A3B8" fill-opacity="0.18" stroke="none"/>
  <text x="284" y="510" font-size="9" fill="#94A3B8" text-anchor="middle" font-family="Inter,system-ui,sans-serif">→</text>
  <text x="298" y="510" font-size="9" fill="#F1F5F9" text-anchor="start" font-family="Inter,system-ui,sans-serif">Sequence Flow</text>
  <rect x="270" y="524" width="168" height="26" fill="#1E293B" fill-opacity="1" stroke="#334155" stroke-width="1"/>
  <rect x="274" y="527" width="20" height="16" fill="#94A3B8" fill-opacity="0.18" stroke="none"/>
  <text x="284" y="538" font-size="9" fill="#94A3B8" text-anchor="middle" font-family="Inter,system-ui,sans-serif">⇢</text>
  <text x="298" y="538" font-size="9" fill="#F1F5F9" text-anchor="start" font-family="Inter,system-ui,sans-serif">Message Flow</text>
  <rect x="270" y="552" width="168" height="26" fill="#1E293B" fill-opacity="1" stroke="#334155" stroke-width="1"/>
  <rect x="274" y="555" width="20" height="16" fill="#94A3B8" fill-opacity="0.18" stroke="none"/>
  <text x="284" y="566" font-size="9" fill="#94A3B8" text-anchor="middle" font-family="Inter,system-ui,sans-serif">↔</text>
  <text x="298" y="566" font-size="9" fill="#F1F5F9" text-anchor="start" font-family="Inter,system-ui,sans-serif">Association</text>
  <rect x="448" y="64" width="532" height="34" fill="#1E293B" fill-opacity="1" stroke="#334155" stroke-width="1"/>
  <rect x="452" y="69" width="62" height="24" fill="#0C4A6E" fill-opacity="1" stroke="#38BDF8" stroke-width="1"/>
  <text x="483" y="84" font-size="10" fill="#38BDF8" text-anchor="middle" font-family="Inter,system-ui,sans-serif">▷ Select</text>
  <rect x="520" y="69" width="62" height="24" fill="#0B1829" fill-opacity="1" stroke="#334155" stroke-width="1"/>
  <text x="551" y="84" font-size="10" fill="#94A3B8" text-anchor="middle" font-family="Inter,system-ui,sans-serif">⌒ Connect</text>
  <rect x="590" y="69" width="62" height="24" fill="#0B1829" fill-opacity="1" stroke="#334155" stroke-width="1"/>
  <text x="621" y="84" font-size="10" fill="#94A3B8" text-anchor="middle" font-family="Inter,system-ui,sans-serif">✋ Pan</text>
  <rect x="656" y="72" width="1" height="18" fill="#334155" fill-opacity="1" stroke="none"/>
  <rect x="664" y="69" width="56" height="24" fill="#0B1829" fill-opacity="1" stroke="#334155" stroke-width="1"/>
  <text x="692" y="84" font-size="10" fill="#94A3B8" text-anchor="middle" font-family="Inter,system-ui,sans-serif">+ Lane</text>
  <rect x="728" y="69" width="56" height="24" fill="#0B1829" fill-opacity="1" stroke="#334155" stroke-width="1"/>
  <text x="756" y="84" font-size="10" fill="#94A3B8" text-anchor="middle" font-family="Inter,system-ui,sans-serif">+ Pool</text>
  <rect x="792" y="72" width="1" height="18" fill="#334155" fill-opacity="1" stroke="none"/>
  <rect x="800" y="69" width="68" height="24" fill="#0B1829" fill-opacity="1" stroke="#334155" stroke-width="1"/>
  <text x="808" y="85" font-size="11" fill="#94A3B8" text-anchor="middle" font-family="Inter,system-ui,sans-serif">−</text>
  <text x="834" y="85" font-size="11" fill="#F1F5F9" text-anchor="middle" font-family="Inter,system-ui,sans-serif">80%</text>
  <text x="860" y="85" font-size="11" fill="#94A3B8" text-anchor="middle" font-family="Inter,system-ui,sans-serif">+</text>
  <rect x="880" y="69" width="56" height="24" fill="#0C4A6E" fill-opacity="1" stroke="#38BDF8" stroke-width="1"/>
  <text x="908" y="84" font-size="10" fill="#38BDF8" text-anchor="middle" font-family="Inter,system-ui,sans-serif">BPMN 2.0</text>
  <rect x="448" y="98" width="532" height="486" fill="#0D1B2E" fill-opacity="1" stroke="none"/>
  <rect x="448" y="98" width="1" height="486" fill="#1E3A5A" fill-opacity="0.45" stroke="none"/>
  <rect x="468" y="98" width="1" height="486" fill="#1E3A5A" fill-opacity="0.45" stroke="none"/>
  <rect x="488" y="98" width="1" height="486" fill="#1E3A5A" fill-opacity="0.45" stroke="none"/>
  <rect x="508" y="98" width="1" height="486" fill="#1E3A5A" fill-opacity="0.45" stroke="none"/>
  <rect x="528" y="98" width="1" height="486" fill="#1E3A5A" fill-opacity="0.45" stroke="none"/>
  <rect x="548" y="98" width="1" height="486" fill="#1E3A5A" fill-opacity="0.45" stroke="none"/>
  <rect x="568" y="98" width="1" height="486" fill="#1E3A5A" fill-opacity="0.45" stroke="none"/>
  <rect x="588" y="98" width="1" height="486" fill="#1E3A5A" fill-opacity="0.45" stroke="none"/>
  <rect x="608" y="98" width="1" height="486" fill="#1E3A5A" fill-opacity="0.45" stroke="none"/>
  <rect x="628" y="98" width="1" height="486" fill="#1E3A5A" fill-opacity="0.45" stroke="none"/>
  <rect x="648" y="98" width="1" height="486" fill="#1E3A5A" fill-opacity="0.45" stroke="none"/>
  <rect x="668" y="98" width="1" height="486" fill="#1E3A5A" fill-opacity="0.45" stroke="none"/>
  <rect x="688" y="98" width="1" height="486" fill="#1E3A5A" fill-opacity="0.45" stroke="none"/>
  <rect x="708" y="98" width="1" height="486" fill="#1E3A5A" fill-opacity="0.45" stroke="none"/>
  <rect x="728" y="98" width="1" height="486" fill="#1E3A5A" fill-opacity="0.45" stroke="none"/>
  <rect x="748" y="98" width="1" height="486" fill="#1E3A5A" fill-opacity="0.45" stroke="none"/>
  <rect x="768" y="98" width="1" height="486" fill="#1E3A5A" fill-opacity="0.45" stroke="none"/>
  <rect x="788" y="98" width="1" height="486" fill="#1E3A5A" fill-opacity="0.45" stroke="none"/>
  <rect x="808" y="98" width="1" height="486" fill="#1E3A5A" fill-opacity="0.45" stroke="none"/>
  <rect x="828" y="98" width="1" height="486" fill="#1E3A5A" fill-opacity="0.45" stroke="none"/>
  <rect x="848" y="98" width="1" height="486" fill="#1E3A5A" fill-opacity="0.45" stroke="none"/>
  <rect x="868" y="98" width="1" height="486" fill="#1E3A5A" fill-opacity="0.45" stroke="none"/>
  <rect x="888" y="98" width="1" height="486" fill="#1E3A5A" fill-opacity="0.45" stroke="none"/>
  <rect x="908" y="98" width="1" height="486" fill="#1E3A5A" fill-opacity="0.45" stroke="none"/>
  <rect x="928" y="98" width="1" height="486" fill="#1E3A5A" fill-opacity="0.45" stroke="none"/>
  <rect x="948" y="98" width="1" height="486" fill="#1E3A5A" fill-opacity="0.45" stroke="none"/>
  <rect x="968" y="98" width="1" height="486" fill="#1E3A5A" fill-opacity="0.45" stroke="none"/>
  <rect x="448" y="98" width="532" height="1" fill="#1E3A5A" fill-opacity="0.45" stroke="none"/>
  <rect x="448" y="118" width="532" height="1" fill="#1E3A5A" fill-opacity="0.45" stroke="none"/>
  <rect x="448" y="138" width="532" height="1" fill="#1E3A5A" fill-opacity="0.45" stroke="none"/>
  <rect x="448" y="158" width="532" height="1" fill="#1E3A5A" fill-opacity="0.45" stroke="none"/>
  <rect x="448" y="178" width="532" height="1" fill="#1E3A5A" fill-opacity="0.45" stroke="none"/>
  <rect x="448" y="198" width="532" height="1" fill="#1E3A5A" fill-opacity="0.45" stroke="none"/>
  <rect x="448" y="218" width="532" height="1" fill="#1E3A5A" fill-opacity="0.45" stroke="none"/>
  <rect x="448" y="238" width="532" height="1" fill="#1E3A5A" fill-opacity="0.45" stroke="none"/>
  <rect x="448" y="258" width="532" height="1" fill="#1E3A5A" fill-opacity="0.45" stroke="none"/>
  <rect x="448" y="278" width="532" height="1" fill="#1E3A5A" fill-opacity="0.45" stroke="none"/>
  <rect x="448" y="298" width="532" height="1" fill="#1E3A5A" fill-opacity="0.45" stroke="none"/>
  <rect x="448" y="318" width="532" height="1" fill="#1E3A5A" fill-opacity="0.45" stroke="none"/>
  <rect x="448" y="338" width="532" height="1" fill="#1E3A5A" fill-opacity="0.45" stroke="none"/>
  <rect x="448" y="358" width="532" height="1" fill="#1E3A5A" fill-opacity="0.45" stroke="none"/>
  <rect x="448" y="378" width="532" height="1" fill="#1E3A5A" fill-opacity="0.45" stroke="none"/>
  <rect x="448" y="398" width="532" height="1" fill="#1E3A5A" fill-opacity="0.45" stroke="none"/>
  <rect x="448" y="418" width="532" height="1" fill="#1E3A5A" fill-opacity="0.45" stroke="none"/>
  <rect x="448" y="438" width="532" height="1" fill="#1E3A5A" fill-opacity="0.45" stroke="none"/>
  <rect x="448" y="458" width="532" height="1" fill="#1E3A5A" fill-opacity="0.45" stroke="none"/>
  <rect x="448" y="478" width="532" height="1" fill="#1E3A5A" fill-opacity="0.45" stroke="none"/>
  <rect x="448" y="498" width="532" height="1" fill="#1E3A5A" fill-opacity="0.45" stroke="none"/>
  <rect x="448" y="518" width="532" height="1" fill="#1E3A5A" fill-opacity="0.45" stroke="none"/>
  <rect x="448" y="538" width="532" height="1" fill="#1E3A5A" fill-opacity="0.45" stroke="none"/>
  <rect x="448" y="558" width="532" height="1" fill="#1E3A5A" fill-opacity="0.45" stroke="none"/>
  <rect x="448" y="578" width="532" height="1" fill="#1E3A5A" fill-opacity="0.45" stroke="none"/>
  <rect x="450" y="106" width="524" height="360" fill="#F1F5F9" fill-opacity="1" stroke="#334155" stroke-width="1"/>
  <rect x="450" y="106" width="524" height="22" fill="#162030" fill-opacity="1" stroke="#334155" stroke-width="1"/>
  <text x="458" y="121" font-size="11" fill="#F1F5F9" text-anchor="start" font-family="Inter,system-ui,sans-serif">Architecture Review</text>
  <text x="670" y="120" font-size="10" fill="#94A3B8" text-anchor="start" font-family="Inter,system-ui,sans-serif">BPMN 2.0</text>
  <rect x="450" y="128" width="24" height="172" fill="#162030" fill-opacity="1" stroke="#334155" stroke-width="1"/>
  <text x="454" y="140" font-size="8" fill="#94A3B8" text-anchor="start" font-family="Inter,system-ui,sans-serif">Architecture Lead</text>
  <rect x="474" y="128" width="500" height="172" fill="#FFFFFF" fill-opacity="1" stroke="#334155" stroke-width="0.5"/>
  <rect x="450" y="300" width="24" height="166" fill="#162030" fill-opacity="1" stroke="#334155" stroke-width="1"/>
  <text x="454" y="312" font-size="8" fill="#94A3B8" text-anchor="start" font-family="Inter,system-ui,sans-serif">Architecture Board</text>
  <rect x="474" y="300" width="500" height="166" fill="#FFFFFF" fill-opacity="1" stroke="#334155" stroke-width="0.5"/>
  <rect x="474" y="200" width="28" height="28" fill="#DCFCE7" fill-opacity="1" stroke="#16A34A" stroke-width="1.5"/>
  <text x="488" y="214" font-size="12" fill="#16A34A" text-anchor="middle" font-family="Inter,system-ui,sans-serif">○</text>
  <text x="488" y="239" font-size="8" fill="#94A3B8" text-anchor="middle" font-family="Inter,system-ui,sans-serif">Change
Requested</text>
  <rect x="522" y="192" width="120" height="44" fill="#1E293B" fill-opacity="1" stroke="#334155" stroke-width="1"/>
  <rect x="522" y="192" width="18" height="14" fill="#0EA5E9" fill-opacity="0.12" stroke="none"/>
  <text x="531" y="201" font-size="8" fill="#0EA5E9" text-anchor="middle" font-family="Inter,system-ui,sans-serif">☐</text>
  <text x="582" y="214" font-size="10" fill="#F1F5F9" text-anchor="middle" font-family="Inter,system-ui,sans-serif">Impact Analysis</text>
  <rect x="658" y="196" width="36" height="36" fill="#FEF9C3" fill-opacity="1" stroke="#B45309" stroke-width="1.5"/>
  <text x="676" y="210" font-size="14" fill="#B45309" text-anchor="middle" font-family="Inter,system-ui,sans-serif">✕</text>
  <text x="676" y="243" font-size="8" fill="#94A3B8" text-anchor="middle" font-family="Inter,system-ui,sans-serif">Major Change?</text>
  <rect x="720" y="192" width="120" height="44" fill="#1E293B" fill-opacity="1" stroke="#334155" stroke-width="1"/>
  <rect x="720" y="192" width="18" height="14" fill="#0EA5E9" fill-opacity="0.12" stroke="none"/>
  <text x="729" y="201" font-size="8" fill="#0EA5E9" text-anchor="middle" font-family="Inter,system-ui,sans-serif">⚙</text>
  <text x="780" y="214" font-size="10" fill="#F1F5F9" text-anchor="middle" font-family="Inter,system-ui,sans-serif">Self-Approve</text>
  <rect x="850" y="200" width="28" height="28" fill="#FEE2E2" fill-opacity="1" stroke="#DC2626" stroke-width="3"/>
  <text x="864" y="214" font-size="12" fill="#DC2626" text-anchor="middle" font-family="Inter,system-ui,sans-serif">◉</text>
  <text x="864" y="239" font-size="8" fill="#94A3B8" text-anchor="middle" font-family="Inter,system-ui,sans-serif">Decision
Published</text>
  <rect x="717" y="358" width="136" height="50" fill="#0C4A6E" fill-opacity="1" stroke="#2563EB" stroke-width="2"/>
  <rect x="720" y="361" width="130" height="44" fill="#0C4A6E" fill-opacity="1" stroke="#2563EB" stroke-width="2"/>
  <rect x="720" y="361" width="18" height="14" fill="#0EA5E9" fill-opacity="0.12" stroke="none"/>
  <text x="729" y="370" font-size="8" fill="#0EA5E9" text-anchor="middle" font-family="Inter,system-ui,sans-serif">☐</text>
  <text x="785" y="383" font-size="10" fill="#F1F5F9" text-anchor="middle" font-family="Inter,system-ui,sans-serif">Board Review</text>
  <rect x="870" y="361" width="88" height="44" fill="#1E293B" fill-opacity="1" stroke="#334155" stroke-width="1"/>
  <rect x="870" y="361" width="18" height="14" fill="#0EA5E9" fill-opacity="0.12" stroke="none"/>
  <text x="879" y="370" font-size="8" fill="#0EA5E9" text-anchor="middle" font-family="Inter,system-ui,sans-serif">📋</text>
  <text x="914" y="383" font-size="10" fill="#F1F5F9" text-anchor="middle" font-family="Inter,system-ui,sans-serif">Document
Decision</text>
  <rect x="964" y="369" width="28" height="28" fill="#FEE2E2" fill-opacity="1" stroke="#DC2626" stroke-width="3"/>
  <text x="978" y="383" font-size="12" fill="#DC2626" text-anchor="middle" font-family="Inter,system-ui,sans-serif">◉</text>
  <text x="978" y="408" font-size="8" fill="#94A3B8" text-anchor="middle" font-family="Inter,system-ui,sans-serif">Decision
Published</text>
  <rect x="502" y="214" width="20" height="2" fill="#64748B" fill-opacity="0.6" stroke="none"/>
  <text x="521" y="217" font-size="8" fill="#64748B" text-anchor="middle" font-family="Inter,system-ui,sans-serif">►</text>
  <rect x="642" y="214" width="16" height="2" fill="#64748B" fill-opacity="0.6" stroke="none"/>
  <text x="657" y="217" font-size="8" fill="#64748B" text-anchor="middle" font-family="Inter,system-ui,sans-serif">►</text>
  <rect x="694" y="214" width="26" height="2" fill="#64748B" fill-opacity="0.6" stroke="none"/>
  <text x="719" y="217" font-size="8" fill="#64748B" text-anchor="middle" font-family="Inter,system-ui,sans-serif">►</text>
  <text x="707" y="208" font-size="8" fill="#94A3B8" text-anchor="middle" font-family="Inter,system-ui,sans-serif">No →</text>
  <rect x="840" y="214" width="24" height="2" fill="#64748B" fill-opacity="0.6" stroke="none"/>
  <text x="863" y="217" font-size="8" fill="#64748B" text-anchor="middle" font-family="Inter,system-ui,sans-serif">►</text>
  <rect x="676" y="232" width="2" height="151" fill="#64748B" fill-opacity="0.6" stroke="none"/>
  <text x="676" y="387" font-size="8" fill="#64748B" text-anchor="middle" font-family="Inter,system-ui,sans-serif">▼</text>
  <text x="704" y="310.5" font-size="8" fill="#94A3B8" text-anchor="middle" font-family="Inter,system-ui,sans-serif">Yes ↓</text>
  <rect x="678" y="383" width="42" height="2" fill="#64748B" fill-opacity="0.6" stroke="none"/>
  <text x="719" y="386" font-size="8" fill="#64748B" text-anchor="middle" font-family="Inter,system-ui,sans-serif">►</text>
  <rect x="850" y="383" width="10" height="2" fill="#64748B" fill-opacity="0.6" stroke="none"/>
  <text x="859" y="386" font-size="8" fill="#64748B" text-anchor="middle" font-family="Inter,system-ui,sans-serif">►</text>
  <rect x="950" y="383" width="8" height="2" fill="#64748B" fill-opacity="0.6" stroke="none"/>
  <text x="957" y="386" font-size="8" fill="#64748B" text-anchor="middle" font-family="Inter,system-ui,sans-serif">►</text>
  <rect x="560" y="361" width="148" height="12" fill="#0C4A6E" fill-opacity="0.6" stroke="#38BDF8" stroke-width="1"/>
  <text x="564" y="370" font-size="8" fill="#38BDF8" text-anchor="start" font-family="Inter,system-ui,sans-serif">Selected: T-ACR-002</text>
  <rect x="984" y="64" width="296" height="520" fill="#1E293B" fill-opacity="1" stroke="none"/>
  <rect x="984" y="64" width="296" height="28" fill="#162030" fill-opacity="1" stroke="#334155" stroke-width="1"/>
  <rect x="984" y="64" width="100" height="28" fill="#1E293B" fill-opacity="1" stroke="#334155" stroke-width="1"/>
  <text x="1034" y="82" font-size="12" fill="#38BDF8" text-anchor="middle" font-family="Inter,system-ui,sans-serif">Properties</text>
  <text x="1120" y="82" font-size="12" fill="#94A3B8" text-anchor="middle" font-family="Inter,system-ui,sans-serif">I/O Data</text>
  <text x="1192" y="82" font-size="12" fill="#94A3B8" text-anchor="middle" font-family="Inter,system-ui,sans-serif">Listeners</text>
  <rect x="984" y="100" width="296" height="20" fill="#162030" fill-opacity="1" stroke="none"/>
  <text x="992" y="113" font-size="10" fill="#94A3B8" text-anchor="start" font-family="Inter,system-ui,sans-serif">General</text>
  <text x="992" y="131" font-size="9" fill="#94A3B8" text-anchor="start" font-family="Inter,system-ui,sans-serif">ID</text>
  <text x="1016" y="132" font-size="10" fill="#2563EB" text-anchor="start" font-family="Inter,system-ui,sans-serif">T-ACR-002</text>
  <text x="992" y="148" font-size="9" fill="#94A3B8" text-anchor="start" font-family="Inter,system-ui,sans-serif">Name</text>
  <rect x="992" y="150" width="280" height="22" fill="#0B1829" fill-opacity="1" stroke="#38BDF8" stroke-width="1.5"/>
  <text x="996" y="165" font-size="11" fill="#F1F5F9" text-anchor="start" font-family="Inter,system-ui,sans-serif">Board Review</text>
  <text x="992" y="186" font-size="9" fill="#94A3B8" text-anchor="start" font-family="Inter,system-ui,sans-serif">Type</text>
  <rect x="992" y="188" width="280" height="22" fill="#0B1829" fill-opacity="1" stroke="#334155" stroke-width="1"/>
  <rect x="996" y="193" width="14" height="12" fill="#0EA5E9" fill-opacity="1" stroke="none"/>
  <text x="1003" y="201" font-size="8" fill="#FFFFFF" text-anchor="middle" font-family="Inter,system-ui,sans-serif">☐</text>
  <text x="1014" y="203" font-size="11" fill="#F1F5F9" text-anchor="start" font-family="Inter,system-ui,sans-serif">User Task</text>
  <text x="992" y="224" font-size="9" fill="#94A3B8" text-anchor="start" font-family="Inter,system-ui,sans-serif">Assigned Lane</text>
  <rect x="992" y="226" width="280" height="22" fill="#0B1829" fill-opacity="1" stroke="#334155" stroke-width="1"/>
  <text x="996" y="241" font-size="11" fill="#F1F5F9" text-anchor="start" font-family="Inter,system-ui,sans-serif">Architecture Board</text>
  <text x="992" y="262" font-size="9" fill="#94A3B8" text-anchor="start" font-family="Inter,system-ui,sans-serif">Candidate Groups</text>
  <rect x="992" y="264" width="280" height="22" fill="#0B1829" fill-opacity="1" stroke="#334155" stroke-width="1"/>
  <text x="996" y="279" font-size="11" fill="#F1F5F9" text-anchor="start" font-family="Inter,system-ui,sans-serif">architecture-board</text>
  <rect x="984" y="290" width="296" height="20" fill="#162030" fill-opacity="1" stroke="none"/>
  <text x="992" y="303" font-size="10" fill="#94A3B8" text-anchor="start" font-family="Inter,system-ui,sans-serif">Sequence Flows</text>
  <text x="992" y="322" font-size="9" fill="#94A3B8" text-anchor="start" font-family="Inter,system-ui,sans-serif">Incoming:</text>
  <text x="1056" y="323" font-size="10" fill="#38BDF8" text-anchor="start" font-family="Inter,system-ui,sans-serif">F5H (Yes from G_Major)</text>
  <text x="992" y="340" font-size="9" fill="#94A3B8" text-anchor="start" font-family="Inter,system-ui,sans-serif">Outgoing:</text>
  <text x="1056" y="341" font-size="10" fill="#38BDF8" text-anchor="start" font-family="Inter,system-ui,sans-serif">F6 → T_Doc</text>
  <rect x="984" y="350" width="296" height="20" fill="#162030" fill-opacity="1" stroke="none"/>
  <text x="992" y="363" font-size="10" fill="#94A3B8" text-anchor="start" font-family="Inter,system-ui,sans-serif">Documentation</text>
  <rect x="992" y="370" width="280" height="40" fill="#0B1829" fill-opacity="1" stroke="#334155" stroke-width="1"/>
  <text x="996" y="384" font-size="10" fill="#94A3B8" text-anchor="start" font-family="Inter,system-ui,sans-serif">Architecture Board reviews significant
changes exceeding defined thresholds.</text>
  <rect x="0" y="584" width="1280" height="192" fill="#1E293B" fill-opacity="1" stroke="#334155" stroke-width="1"/>
  <rect x="0" y="584" width="1280" height="28" fill="#162030" fill-opacity="1" stroke="#334155" stroke-width="1"/>
  <rect x="0" y="584" width="96" height="28" fill="#1E293B" fill-opacity="1" stroke="#334155" stroke-width="1"/>
  <text x="48" y="602" font-size="12" fill="#38BDF8" text-anchor="middle" font-family="Inter,system-ui,sans-serif">Validation</text>
  <text x="104" y="602" font-size="12" fill="#94A3B8" text-anchor="start" font-family="Inter,system-ui,sans-serif">Output</text>
  <text x="8" y="633" font-size="11" fill="#059669" text-anchor="start" font-family="Inter,system-ui,sans-serif">✓  BPMN 2.0 valid  ·  2 lanes  ·  4 tasks  ·  1 gateway  ·  2 end events</text>
  <text x="8" y="652" font-size="10" fill="#94A3B8" text-anchor="start" font-family="Inter,system-ui,sans-serif">[INFO]   Process «Architecture Review» loaded  ·  UC-10  ·  BPMN 2.0 compliant</text>
  <text x="8" y="670" font-size="10" fill="#94A3B8" text-anchor="start" font-family="Inter,system-ui,sans-serif">[INFO]   5 sequence flows validated  ·  No dead-end paths</text>
  <text x="8" y="688" font-size="10" fill="#94A3B8" text-anchor="start" font-family="Inter,system-ui,sans-serif">[INFO]   Selected: Task T-ACR-002 «Board Review»  ·  Architecture Board lane</text>
  <rect x="0" y="776" width="1280" height="24" fill="#020617" fill-opacity="1" stroke="none"/>
  <text x="8" y="792" font-size="10" fill="#64748B" text-anchor="start" font-family="Inter,system-ui,sans-serif">BPMN Editor  ·  Architecture Review  ·  4 tasks  ·  1 gateway  ·  2 end events</text>
  <text x="1272" y="792" font-size="10" fill="#64748B" text-anchor="end" font-family="Inter,system-ui,sans-serif">Connected  ·  OEA 0.1.0-SNAPSHOT</text>
</svg>