<?xml version="1.0" encoding="UTF-8"?>
<svg xmlns="http://www.w3.org/2000/svg" width="1280" height="800" viewBox="0 0 1280 800">
  <rect width="1280" height="800" fill="#FFFFFF"/>
  <rect x="0" y="0" width="1280" height="28" fill="#020617" fill-opacity="1" stroke="none"/>
  <text x="8" y="18" font-size="12" fill="#CBD5E1" text-anchor="start" font-family="Inter,system-ui,sans-serif">File</text>
  <text x="54" y="18" font-size="12" fill="#CBD5E1" text-anchor="start" font-family="Inter,system-ui,sans-serif">Edit</text>
  <text x="100" y="18" font-size="12" fill="#CBD5E1" text-anchor="start" font-family="Inter,system-ui,sans-serif">View</text>
  <text x="148" y="18" font-size="12" fill="#CBD5E1" text-anchor="start" font-family="Inter,system-ui,sans-serif">Model</text>
  <text x="200" y="18" font-size="12" fill="#CBD5E1" text-anchor="start" font-family="Inter,system-ui,sans-serif">Tools</text>
  <text x="248" y="18" font-size="12" fill="#CBD5E1" text-anchor="start" font-family="Inter,system-ui,sans-serif">Help</text>
  <text x="1272" y="17" font-size="11" fill="#64748B" text-anchor="end" font-family="Inter,system-ui,sans-serif">OEA 0.1.0-SNAPSHOT</text>
  <rect x="0" y="28" width="1280" height="36" fill="#1E293B" fill-opacity="1" stroke="#334155" stroke-width="1"/>
  <text x="8" y="51" font-size="12" fill="#94A3B8" text-anchor="start" font-family="Inter,system-ui,sans-serif">Diagrams</text>
  <text x="80" y="51" font-size="12" fill="#94A3B8" text-anchor="middle" font-family="Inter,system-ui,sans-serif">›</text>
  <text x="88" y="51" font-size="12" fill="#F1F5F9" text-anchor="start" font-family="Inter,system-ui,sans-serif">OEA Architecture Overview</text>
  <text x="340" y="49" font-size="10" fill="#94A3B8" text-anchor="start" font-family="Inter,system-ui,sans-serif">Viewpoint: free-form</text>
  <rect x="1092" y="35" width="78" height="22" fill="#0B1829" fill-opacity="1" stroke="#334155" stroke-width="1"/>
  <text x="1131" y="50" font-size="11" fill="#94A3B8" text-anchor="middle" font-family="Inter,system-ui,sans-serif">Export SVG</text>
  <rect x="1178" y="35" width="76" height="22" fill="#38BDF8" fill-opacity="1" stroke="none"/>
  <text x="1216" y="50" font-size="11" fill="#FFFFFF" text-anchor="middle" font-family="Inter,system-ui,sans-serif">Save</text>
  <rect x="260" y="64" width="4" height="520" fill="#334155" fill-opacity="1" stroke="none"/>
  <rect x="444" y="64" width="4" height="520" fill="#334155" fill-opacity="1" stroke="none"/>
  <rect x="980" y="64" width="4" height="520" fill="#334155" fill-opacity="1" stroke="none"/>
  <rect x="0" y="64" width="260" height="520" fill="#1E293B" fill-opacity="1" stroke="none"/>
  <rect x="0" y="64" width="260" height="28" fill="#162030" fill-opacity="1" stroke="#334155" stroke-width="1"/>
  <text x="8" y="83" font-size="12" fill="#F1F5F9" text-anchor="start" font-family="Inter,system-ui,sans-serif">Explorer</text>
  <rect x="8" y="100" width="244" height="24" fill="#0B1829" fill-opacity="1" stroke="#334155" stroke-width="1"/>
  <text x="14" y="117" font-size="11" fill="#94A3B8" text-anchor="start" font-family="Inter,system-ui,sans-serif">Search...</text>
  <text x="10" y="144" font-size="9" fill="#94A3B8" text-anchor="middle" font-family="Inter,system-ui,sans-serif">▼</text>
  <rect x="16" y="139" width="7" height="7" fill="#0284C7" fill-opacity="1" stroke="none"/>
  <text x="26" y="146" font-size="11" fill="#F1F5F9" text-anchor="start" font-family="Inter,system-ui,sans-serif">Current State (AS-IS)</text>
  <text x="24" y="166" font-size="9" fill="#94A3B8" text-anchor="middle" font-family="Inter,system-ui,sans-serif">▶</text>
  <rect x="30" y="161" width="7" height="7" fill="#2563EB" fill-opacity="1" stroke="none"/>
  <text x="40" y="168" font-size="11" fill="#F1F5F9" text-anchor="start" font-family="Inter,system-ui,sans-serif">Components  (14)</text>
  <text x="24" y="188" font-size="9" fill="#94A3B8" text-anchor="middle" font-family="Inter,system-ui,sans-serif">▶</text>
  <rect x="30" y="183" width="7" height="7" fill="#64748B" fill-opacity="1" stroke="none"/>
  <text x="40" y="190" font-size="11" fill="#F1F5F9" text-anchor="start" font-family="Inter,system-ui,sans-serif">Connections  (38)</text>
  <text x="24" y="210" font-size="9" fill="#94A3B8" text-anchor="middle" font-family="Inter,system-ui,sans-serif">▶</text>
  <rect x="30" y="205" width="7" height="7" fill="#DC2626" fill-opacity="1" stroke="none"/>
  <text x="40" y="212" font-size="11" fill="#F1F5F9" text-anchor="start" font-family="Inter,system-ui,sans-serif">Catalogs  (5)</text>
  <text x="24" y="232" font-size="9" fill="#94A3B8" text-anchor="middle" font-family="Inter,system-ui,sans-serif">▶</text>
  <rect x="30" y="227" width="7" height="7" fill="#0891B2" fill-opacity="1" stroke="none"/>
  <text x="40" y="234" font-size="11" fill="#F1F5F9" text-anchor="start" font-family="Inter,system-ui,sans-serif">Diagrams  (6)</text>
  <text x="10" y="254" font-size="9" fill="#94A3B8" text-anchor="middle" font-family="Inter,system-ui,sans-serif">▶</text>
  <rect x="16" y="249" width="7" height="7" fill="#D97706" fill-opacity="1" stroke="none"/>
  <text x="26" y="256" font-size="11" fill="#F1F5F9" text-anchor="start" font-family="Inter,system-ui,sans-serif">AS-IS → TO-BE</text>
  <text x="10" y="276" font-size="9" fill="#94A3B8" text-anchor="middle" font-family="Inter,system-ui,sans-serif">▶</text>
  <rect x="16" y="271" width="7" height="7" fill="#7C3AED" fill-opacity="1" stroke="none"/>
  <text x="26" y="278" font-size="11" fill="#F1F5F9" text-anchor="start" font-family="Inter,system-ui,sans-serif">ERP-Rollout (Project)</text>
  <rect x="264" y="64" width="180" height="520" fill="#172030" fill-opacity="1" stroke="none"/>
  <rect x="264" y="64" width="180" height="28" fill="#162030" fill-opacity="1" stroke="#334155" stroke-width="1"/>
  <text x="272" y="82" font-size="11" fill="#F1F5F9" text-anchor="start" font-family="Inter,system-ui,sans-serif">Shape Palette</text>
  <rect x="416" y="69" width="22" height="18" fill="#0B1829" fill-opacity="1" stroke="#334155" stroke-width="1"/>
  <text x="427" y="81" font-size="10" fill="#94A3B8" text-anchor="middle" font-family="Inter,system-ui,sans-serif">◀</text>
  <rect x="264" y="92" width="180" height="26" fill="#162030" fill-opacity="1" stroke="#334155" stroke-width="1"/>
  <text x="268" y="103" font-size="9" fill="#94A3B8" text-anchor="start" font-family="Inter,system-ui,sans-serif">Viewpoint:</text>
  <rect x="310" y="95" width="126" height="18" fill="#0C4A6E" fill-opacity="1" stroke="#38BDF8" stroke-width="1"/>
  <text x="314" y="107" font-size="9" fill="#38BDF8" text-anchor="start" font-family="Inter,system-ui,sans-serif">free-form (all)</text>
  <rect x="264" y="118" width="180" height="22" fill="#162030" fill-opacity="1" stroke="none"/>
  <text x="274" y="131" font-size="9" fill="#94A3B8" text-anchor="middle" font-family="Inter,system-ui,sans-serif">▼</text>
  <rect x="280" y="125" width="7" height="7" fill="#2563EB" fill-opacity="1" stroke="none"/>
  <text x="290" y="132" font-size="10" fill="#F1F5F9" text-anchor="start" font-family="Inter,system-ui,sans-serif">Application Layer</text>
  <rect x="270" y="142" width="168" height="28" fill="#1E293B" fill-opacity="1" stroke="#334155" stroke-width="1"/>
  <rect x="274" y="146" width="22" height="18" fill="#2563EB" fill-opacity="0.12" stroke="none"/>
  <rect x="274" y="148" width="10" height="12" fill="#2563EB" fill-opacity="1" stroke="none"/>
  <text x="279" y="155" font-size="6" fill="#FFFFFF" text-anchor="middle" font-family="Inter,system-ui,sans-serif">AC</text>
  <text x="298" y="157" font-size="9" fill="#F1F5F9" text-anchor="start" font-family="Inter,system-ui,sans-serif">Application Component</text>
  <rect x="270" y="172" width="168" height="28" fill="#1E293B" fill-opacity="1" stroke="#334155" stroke-width="1"/>
  <rect x="274" y="176" width="22" height="18" fill="#0284C7" fill-opacity="0.12" stroke="none"/>
  <rect x="274" y="178" width="10" height="12" fill="#0284C7" fill-opacity="1" stroke="none"/>
  <text x="279" y="185" font-size="6" fill="#FFFFFF" text-anchor="middle" font-family="Inter,system-ui,sans-serif">AS</text>
  <text x="298" y="187" font-size="9" fill="#F1F5F9" text-anchor="start" font-family="Inter,system-ui,sans-serif">Application Service</text>
  <rect x="270" y="202" width="168" height="28" fill="#1E293B" fill-opacity="1" stroke="#334155" stroke-width="1"/>
  <rect x="274" y="206" width="22" height="18" fill="#0284C7" fill-opacity="0.12" stroke="none"/>
  <rect x="274" y="208" width="10" height="12" fill="#0284C7" fill-opacity="1" stroke="none"/>
  <text x="279" y="215" font-size="6" fill="#FFFFFF" text-anchor="middle" font-family="Inter,system-ui,sans-serif">AI</text>
  <text x="298" y="217" font-size="9" fill="#F1F5F9" text-anchor="start" font-family="Inter,system-ui,sans-serif">Application Interface</text>
  <rect x="270" y="232" width="168" height="28" fill="#1E293B" fill-opacity="1" stroke="#334155" stroke-width="1"/>
  <rect x="274" y="236" width="22" height="18" fill="#2563EB" fill-opacity="0.12" stroke="none"/>
  <rect x="274" y="238" width="10" height="12" fill="#2563EB" fill-opacity="1" stroke="none"/>
  <text x="279" y="245" font-size="6" fill="#FFFFFF" text-anchor="middle" font-family="Inter,system-ui,sans-serif">AF</text>
  <text x="298" y="247" font-size="9" fill="#F1F5F9" text-anchor="start" font-family="Inter,system-ui,sans-serif">Application Function</text>
  <rect x="270" y="262" width="168" height="28" fill="#1E293B" fill-opacity="1" stroke="#334155" stroke-width="1"/>
  <rect x="274" y="266" width="22" height="18" fill="#2563EB" fill-opacity="0.12" stroke="none"/>
  <rect x="274" y="268" width="10" height="12" fill="#2563EB" fill-opacity="1" stroke="none"/>
  <text x="279" y="275" font-size="6" fill="#FFFFFF" text-anchor="middle" font-family="Inter,system-ui,sans-serif">AP</text>
  <text x="298" y="277" font-size="9" fill="#F1F5F9" text-anchor="start" font-family="Inter,system-ui,sans-serif">Application Process</text>
  <rect x="264" y="292" width="180" height="22" fill="#162030" fill-opacity="1" stroke="none"/>
  <text x="274" y="305" font-size="9" fill="#94A3B8" text-anchor="middle" font-family="Inter,system-ui,sans-serif">▶</text>
  <rect x="280" y="299" width="7" height="7" fill="#7C3AED" fill-opacity="1" stroke="none"/>
  <text x="290" y="306" font-size="10" fill="#94A3B8" text-anchor="start" font-family="Inter,system-ui,sans-serif">Technology Layer</text>
  <rect x="264" y="314" width="180" height="22" fill="#162030" fill-opacity="1" stroke="none"/>
  <text x="274" y="327" font-size="9" fill="#94A3B8" text-anchor="middle" font-family="Inter,system-ui,sans-serif">▶</text>
  <rect x="280" y="321" width="7" height="7" fill="#059669" fill-opacity="1" stroke="none"/>
  <text x="290" y="328" font-size="10" fill="#94A3B8" text-anchor="start" font-family="Inter,system-ui,sans-serif">Business Layer</text>
  <rect x="264" y="336" width="180" height="22" fill="#162030" fill-opacity="1" stroke="none"/>
  <text x="274" y="349" font-size="9" fill="#94A3B8" text-anchor="middle" font-family="Inter,system-ui,sans-serif">▶</text>
  <rect x="280" y="343" width="7" height="7" fill="#DC2626" fill-opacity="1" stroke="none"/>
  <text x="290" y="350" font-size="10" fill="#94A3B8" text-anchor="start" font-family="Inter,system-ui,sans-serif">Motivation</text>
  <rect x="448" y="64" width="532" height="34" fill="#1E293B" fill-opacity="1" stroke="#334155" stroke-width="1"/>
  <rect x="452" y="69" width="62" height="24" fill="#0C4A6E" fill-opacity="1" stroke="#38BDF8" stroke-width="1"/>
  <text x="483" y="84" font-size="10" fill="#38BDF8" text-anchor="middle" font-family="Inter,system-ui,sans-serif">▷ Select</text>
  <rect x="520" y="69" width="62" height="24" fill="#0B1829" fill-opacity="1" stroke="#334155" stroke-width="1"/>
  <text x="551" y="84" font-size="10" fill="#94A3B8" text-anchor="middle" font-family="Inter,system-ui,sans-serif">⌒ Connect</text>
  <rect x="590" y="69" width="62" height="24" fill="#0B1829" fill-opacity="1" stroke="#334155" stroke-width="1"/>
  <text x="621" y="84" font-size="10" fill="#94A3B8" text-anchor="middle" font-family="Inter,system-ui,sans-serif">✋ Pan</text>
  <rect x="656" y="72" width="1" height="18" fill="#334155" fill-opacity="1" stroke="none"/>
  <rect x="664" y="69" width="56" height="24" fill="#0B1829" fill-opacity="1" stroke="#334155" stroke-width="1"/>
  <text x="692" y="84" font-size="10" fill="#94A3B8" text-anchor="middle" font-family="Inter,system-ui,sans-serif">+ Shape</text>
  <rect x="728" y="72" width="1" height="18" fill="#334155" fill-opacity="1" stroke="none"/>
  <rect x="736" y="69" width="44" height="24" fill="#0B1829" fill-opacity="1" stroke="#334155" stroke-width="1"/>
  <text x="758" y="84" font-size="10" fill="#94A3B8" text-anchor="middle" font-family="Inter,system-ui,sans-serif">⊞ Grid</text>
  <rect x="786" y="69" width="40" height="24" fill="#0B1829" fill-opacity="1" stroke="#334155" stroke-width="1"/>
  <text x="806" y="84" font-size="10" fill="#94A3B8" text-anchor="middle" font-family="Inter,system-ui,sans-serif">⊡ Snap</text>
  <rect x="834" y="72" width="1" height="18" fill="#334155" fill-opacity="1" stroke="none"/>
  <rect x="842" y="69" width="68" height="24" fill="#0B1829" fill-opacity="1" stroke="#334155" stroke-width="1"/>
  <text x="850" y="85" font-size="11" fill="#94A3B8" text-anchor="middle" font-family="Inter,system-ui,sans-serif">−</text>
  <text x="876" y="85" font-size="11" fill="#F1F5F9" text-anchor="middle" font-family="Inter,system-ui,sans-serif">75%</text>
  <text x="902" y="85" font-size="11" fill="#94A3B8" text-anchor="middle" font-family="Inter,system-ui,sans-serif">+</text>
  <rect x="448" y="98" width="532" height="486" fill="#0D1B2E" fill-opacity="1" stroke="none"/>
  <rect x="448" y="98" width="1" height="486" fill="#1E3A5A" fill-opacity="0.45" stroke="none"/>
  <rect x="468" y="98" width="1" height="486" fill="#1E3A5A" fill-opacity="0.45" stroke="none"/>
  <rect x="488" y="98" width="1" height="486" fill="#1E3A5A" fill-opacity="0.45" stroke="none"/>
  <rect x="508" y="98" width="1" height="486" fill="#1E3A5A" fill-opacity="0.45" stroke="none"/>
  <rect x="528" y="98" width="1" height="486" fill="#1E3A5A" fill-opacity="0.45" stroke="none"/>
  <rect x="548" y="98" width="1" height="486" fill="#1E3A5A" fill-opacity="0.45" stroke="none"/>
  <rect x="568" y="98" width="1" height="486" fill="#1E3A5A" fill-opacity="0.45" stroke="none"/>
  <rect x="588" y="98" width="1" height="486" fill="#1E3A5A" fill-opacity="0.45" stroke="none"/>
  <rect x="608" y="98" width="1" height="486" fill="#1E3A5A" fill-opacity="0.45" stroke="none"/>
  <rect x="628" y="98" width="1" height="486" fill="#1E3A5A" fill-opacity="0.45" stroke="none"/>
  <rect x="648" y="98" width="1" height="486" fill="#1E3A5A" fill-opacity="0.45" stroke="none"/>
  <rect x="668" y="98" width="1" height="486" fill="#1E3A5A" fill-opacity="0.45" stroke="none"/>
  <rect x="688" y="98" width="1" height="486" fill="#1E3A5A" fill-opacity="0.45" stroke="none"/>
  <rect x="708" y="98" width="1" height="486" fill="#1E3A5A" fill-opacity="0.45" stroke="none"/>
  <rect x="728" y="98" width="1" height="486" fill="#1E3A5A" fill-opacity="0.45" stroke="none"/>
  <rect x="748" y="98" width="1" height="486" fill="#1E3A5A" fill-opacity="0.45" stroke="none"/>
  <rect x="768" y="98" width="1" height="486" fill="#1E3A5A" fill-opacity="0.45" stroke="none"/>
  <rect x="788" y="98" width="1" height="486" fill="#1E3A5A" fill-opacity="0.45" stroke="none"/>
  <rect x="808" y="98" width="1" height="486" fill="#1E3A5A" fill-opacity="0.45" stroke="none"/>
  <rect x="828" y="98" width="1" height="486" fill="#1E3A5A" fill-opacity="0.45" stroke="none"/>
  <rect x="848" y="98" width="1" height="486" fill="#1E3A5A" fill-opacity="0.45" stroke="none"/>
  <rect x="868" y="98" width="1" height="486" fill="#1E3A5A" fill-opacity="0.45" stroke="none"/>
  <rect x="888" y="98" width="1" height="486" fill="#1E3A5A" fill-opacity="0.45" stroke="none"/>
  <rect x="908" y="98" width="1" height="486" fill="#1E3A5A" fill-opacity="0.45" stroke="none"/>
  <rect x="928" y="98" width="1" height="486" fill="#1E3A5A" fill-opacity="0.45" stroke="none"/>
  <rect x="948" y="98" width="1" height="486" fill="#1E3A5A" fill-opacity="0.45" stroke="none"/>
  <rect x="968" y="98" width="1" height="486" fill="#1E3A5A" fill-opacity="0.45" stroke="none"/>
  <rect x="448" y="98" width="532" height="1" fill="#1E3A5A" fill-opacity="0.45" stroke="none"/>
  <rect x="448" y="118" width="532" height="1" fill="#1E3A5A" fill-opacity="0.45" stroke="none"/>
  <rect x="448" y="138" width="532" height="1" fill="#1E3A5A" fill-opacity="0.45" stroke="none"/>
  <rect x="448" y="158" width="532" height="1" fill="#1E3A5A" fill-opacity="0.45" stroke="none"/>
  <rect x="448" y="178" width="532" height="1" fill="#1E3A5A" fill-opacity="0.45" stroke="none"/>
  <rect x="448" y="198" width="532" height="1" fill="#1E3A5A" fill-opacity="0.45" stroke="none"/>
  <rect x="448" y="218" width="532" height="1" fill="#1E3A5A" fill-opacity="0.45" stroke="none"/>
  <rect x="448" y="238" width="532" height="1" fill="#1E3A5A" fill-opacity="0.45" stroke="none"/>
  <rect x="448" y="258" width="532" height="1" fill="#1E3A5A" fill-opacity="0.45" stroke="none"/>
  <rect x="448" y="278" width="532" height="1" fill="#1E3A5A" fill-opacity="0.45" stroke="none"/>
  <rect x="448" y="298" width="532" height="1" fill="#1E3A5A" fill-opacity="0.45" stroke="none"/>
  <rect x="448" y="318" width="532" height="1" fill="#1E3A5A" fill-opacity="0.45" stroke="none"/>
  <rect x="448" y="338" width="532" height="1" fill="#1E3A5A" fill-opacity="0.45" stroke="none"/>
  <rect x="448" y="358" width="532" height="1" fill="#1E3A5A" fill-opacity="0.45" stroke="none"/>
  <rect x="448" y="378" width="532" height="1" fill="#1E3A5A" fill-opacity="0.45" stroke="none"/>
  <rect x="448" y="398" width="532" height="1" fill="#1E3A5A" fill-opacity="0.45" stroke="none"/>
  <rect x="448" y="418" width="532" height="1" fill="#1E3A5A" fill-opacity="0.45" stroke="none"/>
  <rect x="448" y="438" width="532" height="1" fill="#1E3A5A" fill-opacity="0.45" stroke="none"/>
  <rect x="448" y="458" width="532" height="1" fill="#1E3A5A" fill-opacity="0.45" stroke="none"/>
  <rect x="448" y="478" width="532" height="1" fill="#1E3A5A" fill-opacity="0.45" stroke="none"/>
  <rect x="448" y="498" width="532" height="1" fill="#1E3A5A" fill-opacity="0.45" stroke="none"/>
  <rect x="448" y="518" width="532" height="1" fill="#1E3A5A" fill-opacity="0.45" stroke="none"/>
  <rect x="448" y="538" width="532" height="1" fill="#1E3A5A" fill-opacity="0.45" stroke="none"/>
  <rect x="448" y="558" width="532" height="1" fill="#1E3A5A" fill-opacity="0.45" stroke="none"/>
  <rect x="448" y="578" width="532" height="1" fill="#1E3A5A" fill-opacity="0.45" stroke="none"/>
  <rect x="713" y="178" width="2" height="60" fill="#64748B" fill-opacity="0.55" stroke="none"/>
  <text x="714" y="240" font-size="10" fill="#64748B" text-anchor="middle" font-family="Inter,system-ui,sans-serif">▼</text>
  <rect x="532" y="147" width="102" height="2" fill="#64748B" fill-opacity="0.55" stroke="none"/>
  <rect x="531" y="147" width="2" height="91" fill="#64748B" fill-opacity="0.55" stroke="none"/>
  <text x="532" y="240" font-size="10" fill="#64748B" text-anchor="middle" font-family="Inter,system-ui,sans-serif">▼</text>
  <text x="508" y="193" font-size="9" fill="#94A3B8" text-anchor="middle" font-family="Inter,system-ui,sans-serif">accesses</text>
  <rect x="602" y="267" width="32" height="2" fill="#64748B" fill-opacity="0.55" stroke="none"/>
  <text x="635" y="271" font-size="10" fill="#64748B" text-anchor="middle" font-family="Inter,system-ui,sans-serif">►</text>
  <text x="619" y="264" font-size="9" fill="#94A3B8" text-anchor="middle" font-family="Inter,system-ui,sans-serif">delegates</text>
  <rect x="794" y="267" width="32" height="2" fill="#64748B" fill-opacity="0.55" stroke="none"/>
  <text x="827" y="271" font-size="10" fill="#64748B" text-anchor="middle" font-family="Inter,system-ui,sans-serif">►</text>
  <text x="809" y="264" font-size="9" fill="#94A3B8" text-anchor="middle" font-family="Inter,system-ui,sans-serif">auth</text>
  <rect x="713" y="298" width="2" height="80" fill="#64748B" fill-opacity="0.55" stroke="none"/>
  <text x="714" y="380" font-size="10" fill="#64748B" text-anchor="middle" font-family="Inter,system-ui,sans-serif">▼</text>
  <text x="770" y="339" font-size="9" fill="#94A3B8" text-anchor="middle" font-family="Inter,system-ui,sans-serif">reads / writes</text>
  <rect x="634" y="118" width="160" height="60" fill="#1E293B" fill-opacity="1" stroke="#334155" stroke-width="1"/>
  <rect x="634" y="118" width="160" height="20" fill="#2563EB" fill-opacity="0.12" stroke="none"/>
  <rect x="638" y="122" width="12" height="12" fill="#2563EB" fill-opacity="1" stroke="none"/>
  <text x="644" y="130" font-size="7" fill="#FFFFFF" text-anchor="middle" font-family="Inter,system-ui,sans-serif">AC</text>
  <text x="654" y="130" font-size="8" fill="#2563EB" text-anchor="start" font-family="Inter,system-ui,sans-serif">ApplicationComponent</text>
  <text x="714" y="154" font-size="11" fill="#F1F5F9" text-anchor="middle" font-family="Inter,system-ui,sans-serif">Portal-Frontend</text>
  <rect x="462" y="238" width="140" height="60" fill="#1E293B" fill-opacity="1" stroke="#334155" stroke-width="1"/>
  <rect x="462" y="238" width="140" height="20" fill="#0284C7" fill-opacity="0.12" stroke="none"/>
  <rect x="466" y="242" width="12" height="12" fill="#0284C7" fill-opacity="1" stroke="none"/>
  <text x="472" y="250" font-size="7" fill="#FFFFFF" text-anchor="middle" font-family="Inter,system-ui,sans-serif">AS</text>
  <text x="482" y="250" font-size="8" fill="#0284C7" text-anchor="start" font-family="Inter,system-ui,sans-serif">ApplicationService</text>
  <text x="532" y="274" font-size="11" fill="#F1F5F9" text-anchor="middle" font-family="Inter,system-ui,sans-serif">REST-API (Facade)</text>
  <rect x="631" y="235" width="166" height="66" fill="#0C4A6E" fill-opacity="1" stroke="#38BDF8" stroke-width="2"/>
  <rect x="634" y="238" width="160" height="60" fill="#1E293B" fill-opacity="1" stroke="#38BDF8" stroke-width="2"/>
  <rect x="634" y="238" width="160" height="20" fill="#2563EB" fill-opacity="0.12" stroke="none"/>
  <rect x="638" y="242" width="12" height="12" fill="#2563EB" fill-opacity="1" stroke="none"/>
  <text x="644" y="250" font-size="7" fill="#FFFFFF" text-anchor="middle" font-family="Inter,system-ui,sans-serif">AC</text>
  <text x="654" y="250" font-size="8" fill="#2563EB" text-anchor="start" font-family="Inter,system-ui,sans-serif">ApplicationComponent</text>
  <text x="714" y="274" font-size="11" fill="#F1F5F9" text-anchor="middle" font-family="Inter,system-ui,sans-serif">Catalog-Service</text>
  <rect x="634" y="238" width="6" height="6" fill="#1E293B" fill-opacity="1" stroke="#38BDF8" stroke-width="1.5"/>
  <rect x="788" y="238" width="6" height="6" fill="#1E293B" fill-opacity="1" stroke="#38BDF8" stroke-width="1.5"/>
  <rect x="634" y="292" width="6" height="6" fill="#1E293B" fill-opacity="1" stroke="#38BDF8" stroke-width="1.5"/>
  <rect x="788" y="292" width="6" height="6" fill="#1E293B" fill-opacity="1" stroke="#38BDF8" stroke-width="1.5"/>
  <rect x="826" y="238" width="140" height="60" fill="#1E293B" fill-opacity="1" stroke="#334155" stroke-width="1"/>
  <rect x="826" y="238" width="140" height="20" fill="#2563EB" fill-opacity="0.12" stroke="none"/>
  <rect x="830" y="242" width="12" height="12" fill="#2563EB" fill-opacity="1" stroke="none"/>
  <text x="836" y="250" font-size="7" fill="#FFFFFF" text-anchor="middle" font-family="Inter,system-ui,sans-serif">AC</text>
  <text x="846" y="250" font-size="8" fill="#2563EB" text-anchor="start" font-family="Inter,system-ui,sans-serif">ApplicationComponent</text>
  <text x="896" y="274" font-size="11" fill="#F1F5F9" text-anchor="middle" font-family="Inter,system-ui,sans-serif">Auth-Service</text>
  <rect x="634" y="378" width="160" height="60" fill="#1E293B" fill-opacity="1" stroke="#334155" stroke-width="1"/>
  <rect x="634" y="378" width="160" height="20" fill="#7C3AED" fill-opacity="0.12" stroke="none"/>
  <rect x="638" y="382" width="12" height="12" fill="#7C3AED" fill-opacity="1" stroke="none"/>
  <text x="644" y="390" font-size="7" fill="#FFFFFF" text-anchor="middle" font-family="Inter,system-ui,sans-serif">TB</text>
  <text x="654" y="390" font-size="8" fill="#7C3AED" text-anchor="start" font-family="Inter,system-ui,sans-serif">TechnologyService</text>
  <text x="714" y="414" font-size="11" fill="#F1F5F9" text-anchor="middle" font-family="Inter,system-ui,sans-serif">PostgreSQL-DB</text>
  <rect x="583" y="155" width="218" height="124" fill="#94A3B8" fill-opacity="0.18" stroke="none"/>
  <rect x="580" y="152" width="218" height="124" fill="#1E293B" fill-opacity="1" stroke="#38BDF8" stroke-width="1.5"/>
  <rect x="580" y="152" width="218" height="24" fill="#0C4A6E" fill-opacity="1" stroke="#38BDF8" stroke-width="1.5"/>
  <rect x="584" y="158" width="12" height="12" fill="#2563EB" fill-opacity="1" stroke="none"/>
  <text x="590" y="165" font-size="6" fill="#FFFFFF" text-anchor="middle" font-family="Inter,system-ui,sans-serif">AC</text>
  <text x="600" y="169" font-size="10" fill="#38BDF8" text-anchor="start" font-family="Inter,system-ui,sans-serif">Insert or Create Entity</text>
  <text x="787" y="171" font-size="12" fill="#94A3B8" text-anchor="middle" font-family="Inter,system-ui,sans-serif">×</text>
  <text x="586" y="191" font-size="9" fill="#94A3B8" text-anchor="start" font-family="Inter,system-ui,sans-serif">Name this ApplicationComponent</text>
  <rect x="586" y="194" width="206" height="22" fill="#0B1829" fill-opacity="1" stroke="#38BDF8" stroke-width="1.5"/>
  <text x="590" y="210" font-size="11" fill="#F1F5F9" text-anchor="start" font-family="Inter,system-ui,sans-serif">New-Reporting-Svc</text>
  <rect x="586" y="216" width="206" height="18" fill="#0C4A6E" fill-opacity="1" stroke="#334155" stroke-width="1"/>
  <rect x="588" y="220" width="8" height="8" fill="#2563EB" fill-opacity="1" stroke="none"/>
  <text x="600" y="229" font-size="10" fill="#F1F5F9" text-anchor="start" font-family="Inter,system-ui,sans-serif">Reporting-Engine</text>
  <text x="792" y="227" font-size="8" fill="#059669" text-anchor="end" font-family="Inter,system-ui,sans-serif">existing</text>
  <rect x="586" y="234" width="206" height="18" fill="#172030" fill-opacity="1" stroke="#334155" stroke-width="1"/>
  <rect x="588" y="238" width="8" height="8" fill="#2563EB" fill-opacity="1" stroke="none"/>
  <text x="600" y="247" font-size="10" fill="#38BDF8" text-anchor="start" font-family="Inter,system-ui,sans-serif">New-Reporting-Svc</text>
  <text x="792" y="245" font-size="8" fill="#38BDF8" text-anchor="end" font-family="Inter,system-ui,sans-serif">new</text>
  <rect x="702" y="256" width="42" height="18" fill="#0B1829" fill-opacity="1" stroke="#334155" stroke-width="1"/>
  <text x="723" y="269" font-size="10" fill="#94A3B8" text-anchor="middle" font-family="Inter,system-ui,sans-serif">Cancel</text>
  <rect x="750" y="256" width="42" height="18" fill="#38BDF8" fill-opacity="1" stroke="none"/>
  <text x="771" y="269" font-size="10" fill="#FFFFFF" text-anchor="middle" font-family="Inter,system-ui,sans-serif">OK</text>
  <rect x="799" y="256" width="188" height="96" fill="#94A3B8" fill-opacity="0.18" stroke="none"/>
  <rect x="796" y="253" width="188" height="96" fill="#1E293B" fill-opacity="1" stroke="#334155" stroke-width="1"/>
  <text x="804" y="267" font-size="10" fill="#F1F5F9" text-anchor="start" font-family="Inter,system-ui,sans-serif">Edit Properties</text>
  <text x="804" y="287" font-size="10" fill="#F1F5F9" text-anchor="start" font-family="Inter,system-ui,sans-serif">Add Connection</text>
  <rect x="800" y="297" width="180" height="1" fill="#334155" fill-opacity="1" stroke="none"/>
  <text x="804" y="319" font-size="10" fill="#F1F5F9" text-anchor="start" font-family="Inter,system-ui,sans-serif">Remove from Diagram</text>
  <text x="980" y="318" font-size="9" fill="#94A3B8" text-anchor="end" font-family="Inter,system-ui,sans-serif">DEL</text>
  <rect x="796" y="325" width="188" height="20" fill="#78350F" fill-opacity="0.5" stroke="none"/>
  <text x="804" y="339" font-size="10" fill="#FDE68A" text-anchor="start" font-family="Inter,system-ui,sans-serif">Delete Entity</text>
  <text x="980" y="338" font-size="9" fill="#94A3B8" text-anchor="end" font-family="Inter,system-ui,sans-serif">Ctrl+DEL</text>
  <rect x="984" y="64" width="296" height="520" fill="#1E293B" fill-opacity="1" stroke="none"/>
  <rect x="984" y="64" width="296" height="28" fill="#162030" fill-opacity="1" stroke="#334155" stroke-width="1"/>
  <rect x="984" y="64" width="100" height="28" fill="#1E293B" fill-opacity="1" stroke="#334155" stroke-width="1"/>
  <text x="1034" y="82" font-size="12" fill="#38BDF8" text-anchor="middle" font-family="Inter,system-ui,sans-serif">Properties</text>
  <text x="1124" y="82" font-size="12" fill="#94A3B8" text-anchor="middle" font-family="Inter,system-ui,sans-serif">Relations</text>
  <text x="1200" y="82" font-size="12" fill="#94A3B8" text-anchor="middle" font-family="Inter,system-ui,sans-serif">Diagram</text>
  <rect x="984" y="100" width="296" height="20" fill="#162030" fill-opacity="1" stroke="none"/>
  <text x="992" y="113" font-size="10" fill="#94A3B8" text-anchor="start" font-family="Inter,system-ui,sans-serif">General</text>
  <text x="992" y="131" font-size="9" fill="#94A3B8" text-anchor="start" font-family="Inter,system-ui,sans-serif">ID</text>
  <text x="1016" y="132" font-size="10" fill="#94A3B8" text-anchor="start" font-family="Inter,system-ui,sans-serif">#AC-2847</text>
  <text x="1272" y="130" font-size="8" fill="#94A3B8" text-anchor="end" font-family="Inter,system-ui,sans-serif">(system)</text>
  <text x="992" y="148" font-size="9" fill="#94A3B8" text-anchor="start" font-family="Inter,system-ui,sans-serif">Name</text>
  <rect x="992" y="150" width="280" height="22" fill="#0B1829" fill-opacity="1" stroke="#334155" stroke-width="1"/>
  <text x="996" y="165" font-size="11" fill="#F1F5F9" text-anchor="start" font-family="Inter,system-ui,sans-serif">Catalog-Service</text>
  <text x="992" y="186" font-size="9" fill="#94A3B8" text-anchor="start" font-family="Inter,system-ui,sans-serif">Type</text>
  <rect x="992" y="188" width="280" height="22" fill="#0B1829" fill-opacity="1" stroke="#334155" stroke-width="1"/>
  <rect x="996" y="193" width="14" height="12" fill="#2563EB" fill-opacity="1" stroke="none"/>
  <text x="1003" y="200" font-size="7" fill="#FFFFFF" text-anchor="middle" font-family="Inter,system-ui,sans-serif">AC</text>
  <text x="1014" y="203" font-size="11" fill="#F1F5F9" text-anchor="start" font-family="Inter,system-ui,sans-serif">ApplicationComponent</text>
  <rect x="992" y="216" width="16" height="16" fill="#38BDF8" fill-opacity="1" stroke="#38BDF8" stroke-width="1"/>
  <text x="1000" y="226" font-size="9" fill="#FFFFFF" text-anchor="middle" font-family="Inter,system-ui,sans-serif">✓</text>
  <text x="1014" y="227" font-size="10" fill="#F1F5F9" text-anchor="start" font-family="Inter,system-ui,sans-serif">Logical  (conceptual)</text>
  <rect x="984" y="240" width="296" height="20" fill="#162030" fill-opacity="1" stroke="none"/>
  <text x="992" y="253" font-size="10" fill="#94A3B8" text-anchor="start" font-family="Inter,system-ui,sans-serif">Diagram Position &amp; Size</text>
  <text x="992" y="270" font-size="9" fill="#94A3B8" text-anchor="start" font-family="Inter,system-ui,sans-serif">X / Y</text>
  <rect x="992" y="272" width="137" height="22" fill="#0B1829" fill-opacity="1" stroke="#334155" stroke-width="1"/>
  <text x="996" y="286" font-size="10" fill="#94A3B8" text-anchor="start" font-family="Inter,system-ui,sans-serif">X</text>
  <text x="1010" y="287" font-size="11" fill="#F1F5F9" text-anchor="start" font-family="Inter,system-ui,sans-serif">186</text>
  <rect x="1135" y="272" width="137" height="22" fill="#0B1829" fill-opacity="1" stroke="#334155" stroke-width="1"/>
  <text x="1139" y="286" font-size="10" fill="#94A3B8" text-anchor="start" font-family="Inter,system-ui,sans-serif">Y</text>
  <text x="1153" y="287" font-size="11" fill="#F1F5F9" text-anchor="start" font-family="Inter,system-ui,sans-serif">140</text>
  <rect x="984" y="302" width="296" height="20" fill="#162030" fill-opacity="1" stroke="none"/>
  <text x="992" y="315" font-size="10" fill="#94A3B8" text-anchor="start" font-family="Inter,system-ui,sans-serif">Classification</text>
  <text x="992" y="332" font-size="9" fill="#94A3B8" text-anchor="start" font-family="Inter,system-ui,sans-serif">Layer</text>
  <rect x="992" y="334" width="280" height="22" fill="#0B1829" fill-opacity="1" stroke="#334155" stroke-width="1"/>
  <text x="996" y="349" font-size="11" fill="#F1F5F9" text-anchor="start" font-family="Inter,system-ui,sans-serif">Application</text>
  <text x="992" y="370" font-size="9" fill="#94A3B8" text-anchor="start" font-family="Inter,system-ui,sans-serif">Status</text>
  <rect x="992" y="372" width="66" height="22" fill="#D1FAE5" fill-opacity="1" stroke="#059669" stroke-width="1"/>
  <text x="996" y="387" font-size="11" fill="#059669" text-anchor="start" font-family="Inter,system-ui,sans-serif">active</text>
  <rect x="984" y="402" width="296" height="20" fill="#162030" fill-opacity="1" stroke="none"/>
  <text x="992" y="415" font-size="10" fill="#94A3B8" text-anchor="start" font-family="Inter,system-ui,sans-serif">Description</text>
  <rect x="992" y="422" width="280" height="40" fill="#0B1829" fill-opacity="1" stroke="#334155" stroke-width="1"/>
  <text x="996" y="436" font-size="10" fill="#94A3B8" text-anchor="start" font-family="Inter,system-ui,sans-serif">Core component. Manages catalog browsing and filter logic.</text>
  <rect x="0" y="584" width="1280" height="192" fill="#1E293B" fill-opacity="1" stroke="#334155" stroke-width="1"/>
  <rect x="0" y="584" width="1280" height="28" fill="#162030" fill-opacity="1" stroke="#334155" stroke-width="1"/>
  <rect x="0" y="584" width="96" height="28" fill="#1E293B" fill-opacity="1" stroke="#334155" stroke-width="1"/>
  <text x="48" y="602" font-size="12" fill="#38BDF8" text-anchor="middle" font-family="Inter,system-ui,sans-serif">Validation</text>
  <text x="104" y="602" font-size="12" fill="#94A3B8" text-anchor="start" font-family="Inter,system-ui,sans-serif">Output</text>
  <text x="8" y="633" font-size="11" fill="#059669" text-anchor="start" font-family="Inter,system-ui,sans-serif">✓  No issues  ·  5 shapes  ·  5 connections  ·  0 warnings</text>
  <text x="8" y="652" font-size="10" fill="#94A3B8" text-anchor="start" font-family="Inter,system-ui,sans-serif">[INFO]   Diagram «OEA Architecture Overview» loaded  ·  UC-05  ·  AS-IS Plateau</text>
  <text x="8" y="670" font-size="10" fill="#94A3B8" text-anchor="start" font-family="Inter,system-ui,sans-serif">[INFO]   Shape Palette: 5 allowed types (Viewpoint: free-form)</text>
  <text x="8" y="688" font-size="10" fill="#94A3B8" text-anchor="start" font-family="Inter,system-ui,sans-serif">[INFO]   5 connections validated  ·  Last saved: 14:32:01</text>
  <rect x="0" y="776" width="1280" height="24" fill="#020617" fill-opacity="1" stroke="none"/>
  <text x="8" y="792" font-size="10" fill="#64748B" text-anchor="start" font-family="Inter,system-ui,sans-serif">Diagram Editor  ·  OEA Architecture Overview  ·  AS-IS  ·  5 shapes, 5 connections</text>
  <text x="1272" y="792" font-size="10" fill="#64748B" text-anchor="end" font-family="Inter,system-ui,sans-serif">Connected  ·  OEA Server 0.1.0-SNAPSHOT</text>
</svg>